# xmcd
#
# Track frame offsets: 
#        150
#        31832
#        67287
#        109094
#        139607
#        178078
#        205375
#        236245
#        265738
#        300911
#        330094
#
# Disc length: 4789 seconds
#
# Revision: 0
# Processed by: cddbd v1.5.2PL0 Copyright (c) Steve Scherf et al.
# Submitted via: ExactAudioCopy v1.3
#
DISCID=9612b30b
DTITLE=Various Artist - Akella Presents - vol.206 - Longtime of Blues
DTITLE=Rock  CD1
DYEAR=2019
DGENRE=Blues
TTITLE0=Steve Fister - Master Plan
TTITLE1=Bobby Messano - Dominion Roads
TTITLE2=King of the World - Life after you
TTITLE3=The James Pitts Band - Let's Talk
TTITLE4=Chad Wesley - Bad News
TTITLE5=Juniper Inc. - Get Up
TTITLE6=Miss Kaytie - Getting Free
TTITLE7=Jaypee-Jaypar - Meet Me Again
TTITLE8=Andrew Robert Eustace - Suffer You
TTITLE9=Kenny Wayne Shepherd Band - I Want You
TTITLE10=Chris Wragg And Greg Copeland - I'll Cut You Down
EXTD=
EXTT0=
EXTT1=
EXTT2=
EXTT3=
EXTT4=
EXTT5=
EXTT6=
EXTT7=
EXTT8=
EXTT9=
EXTT10=
PLAYORDER=
